<svg width="120" height="32" viewBox="0 0 120 32" fill="none" xmlns="http://www.w3.org/2000/svg">
  <rect width="120" height="32" rx="6" fill="#E2E8F0"/>
  <path d="M18.8 22L16.9 18.1H12.9L11 22H8.4L13.6 10H16.2L21.4 22H18.8ZM14.9 12.8L13.7 15.7H16.1L14.9 12.8Z" fill="#0F172A"/>
  <path d="M24.8 22H22.4V10H24.9L30.4 17.6V10H32.8V22H30.3L24.8 14.3V22Z" fill="#0F172A"/>
  <path d="M38 22H35.6V10H38V22Z" fill="#0F172A"/>
  <path d="M50.2 10V12.3H46.6V22H44.2V12.3H40.6V10H50.2Z" fill="#0F172A"/>
  <path d="M54.8 22H52.4V10H54.8V22Z" fill="#0F172A"/>
  <path d="M66.8 10V12.3H63.2V22H60.8V12.3H57.2V10H66.8Z" fill="#0F172A"/>
</svg>
