<svg width="120" height="32" viewBox="0 0 120 32" fill="none" xmlns="http://www.w3.org/2000/svg">
  <rect width="120" height="32" rx="6" fill="#0F172A"/>
  <circle cx="16" cy="16" r="7" stroke="#8EE2FF" stroke-width="2"/>
  <circle cx="16" cy="16" r="2" fill="#8EE2FF"/>
  <path d="M28 22V10H32C35 10 36.9 11.7 36.9 14.2C36.9 16 36.1 17.2 34.8 17.8L37.6 22H35.1L32.6 18H30.5V22H28ZM30.5 12.1V16.1H32.5C33.7 16.1 34.3 15.3 34.3 14.1C34.3 13 33.7 12.1 32.5 12.1H30.5Z" fill="#8EE2FF"/>
  <path d="M45.3 22.2C42.5 22.2 40.6 20.4 40.6 17.6C40.6 14.8 42.5 13 45.3 13C48.1 13 50 14.8 50 17.6C50 20.4 48.1 22.2 45.3 22.2ZM45.3 20.2C46.7 20.2 47.5 18.9 47.5 17.6C47.5 16.3 46.7 15 45.3 15C43.9 15 43.1 16.3 43.1 17.6C43.1 18.9 43.9 20.2 45.3 20.2Z" fill="#8EE2FF"/>
  <path d="M55.8 13L58.1 19.1L60.4 13H63L59.1 22H57.1L53.2 13H55.8Z" fill="#8EE2FF"/>
  <path d="M72 22V10H74.4V14.8H78.4V10H80.8V22H78.4V17.1H74.4V22H72Z" fill="#8EE2FF"/>
</svg>
