<svg width="120" height="32" viewBox="0 0 120 32" fill="none" xmlns="http://www.w3.org/2000/svg">
  <rect width="120" height="32" rx="6" fill="#0F172A"/>
  <path d="M16 22C13 22 11 20.3 11 17.6C11 14.4 13.2 13 16.2 13H19V14.8H16.4C14.7 14.8 13.5 15.6 13.5 17.6C13.5 19.5 14.6 20.2 16.2 20.2C17.2 20.2 18.1 19.9 18.6 19.3H16.2V17.7H20.9V18.6C20.3 20.6 18.3 22 16 22Z" fill="#8EE2FF"/>
  <path d="M24.8 22C22.1 22 20.5 20.1 20.5 17.6C20.5 15 22.2 13 24.8 13C27.4 13 29.1 15 29.1 17.6C29.1 20.1 27.5 22 24.8 22ZM24.8 20.2C26.2 20.2 26.6 18.8 26.6 17.6C26.6 16.4 26.2 14.8 24.8 14.8C23.4 14.8 22.9 16.4 22.9 17.6C22.9 18.8 23.4 20.2 24.8 20.2Z" fill="#8EE2FF"/>
  <path d="M34.2 22C31.6 22 29.8 20.3 29.8 17.6C29.8 14.9 31.6 13 34.2 13C36.8 13 38.6 14.9 38.6 17.6C38.6 20.3 36.8 22 34.2 22ZM34.2 20.2C35.6 20.2 36.1 18.8 36.1 17.6C36.1 16.4 35.6 14.8 34.2 14.8C32.8 14.8 32.3 16.4 32.3 17.6C32.3 18.8 32.8 20.2 34.2 20.2Z" fill="#8EE2FF"/>
  <path d="M42.4 22H40.1V13H42.5L45.6 18.1V13H47.9V22H45.6L42.4 16.7V22Z" fill="#8EE2FF"/>
  <path d="M50.3 22H48V13H50.4L53.5 18.1V13H55.8V22H53.5L50.3 16.7V22Z" fill="#8EE2FF"/>
  <path d="M65 22L62.2 17.6H61.2V22H58.8V13H62.6C64.9 13 66.4 14.4 66.4 16.2C66.4 17.5 65.7 18.7 64.4 19.2L67.2 22H65ZM62.5 15C61.7 15 61.1 15.6 61.1 16.3V17.5H62.5C63.2 17.5 63.8 16.9 63.8 16.2C63.8 15.5 63.2 15 62.5 15Z" fill="#8EE2FF"/>
</svg>
